<svg xmlns="http://www.w3.org/2000/svg" width="1440" height="696" viewBox="0 0 1440 696" fill="none"><mask id="mask0_10801_26237" style="mask-type:alpha" maskUnits="userSpaceOnUse" x="0" y="0" width="1440" height="696"><rect opacity="0.1" width="1440" height="696" fill="#34E0A1"></rect></mask><g mask="url(#mask0_10801_26237)"></g><g opacity="0.3" clip-path="url(#clip0_10801_26237)"><mask id="mask1_10801_26237" style="mask-type:luminance" maskUnits="userSpaceOnUse" x="0" y="-2" width="1440" height="863"><path d="M1440 -2H0V861H1440V-2Z" fill="white"></path></mask><g mask="url(#mask1_10801_26237)"><g opacity="0.3"><path d="M-14.1729 169.708C4.26632 190.836 15.2087 218.743 39.5274 233.37C79.0123 257.127 132.588 249.751 176.192 252.089C277.053 257.506 427.297 295.862 474.502 403.977C514.935 496.582 388.927 614.359 383.471 711.074C381.375 748.188 387.277 779.909 391.792 816.121C393.532 830.056 393.75 848.229 398.299 861.572C403.402 876.552 423.124 882.776 436.249 883.895C440.981 884.299 445.834 884.147 450.581 884.22C452.782 884.253 457.627 886.597 457.185 884.299C448.481 838.788 419.752 801.103 418.672 752.964C417.019 679.23 459.994 628.953 488.145 566.568C529.387 475.165 499.747 395.039 629.212 384.048C786.641 370.683 779.846 518.184 918.187 537.519C1004.31 549.555 1070.15 501.772 1145.5 465.499C1176.38 450.631 1210.43 441.253 1243.82 435.776C1284.54 429.096 1325.79 426.69 1366.96 427.206C1387.29 427.461 1427.67 439.408 1444.75 437.63C1456.16 436.439 1467.64 409.195 1468.29 398.635C1468.34 397.796 1463.35 396.773 1462.51 396.673C1445.66 394.655 1428.43 397.212 1411.57 398.143C1410.26 398.215 1408.95 398.287 1407.64 398.335C1382.13 399.218 1356.55 392.398 1331.36 388.842C1285.76 382.402 1235.01 379.081 1190.41 393.021C1119.03 415.327 975.604 504.994 903.004 477.491C848.674 456.911 815.254 402.243 765.109 374.866C731.809 356.691 673.024 364.203 652.62 328.92C607.946 251.669 845.557 235.808 863.017 232.523C958.234 214.612 997.41 206.937 1061.16 126.358C1083.43 98.2027 1098.59 64.8972 1121.91 37.1693C1141.26 14.176 1167.04 1.53456 1192.69 -11.6422C1204.59 -17.7631 1216.8 -22.7013 1228.96 -28.167C1229.56 -28.4387 1234.3 -30.716 1234.06 -31.3233C1232.36 -35.7622 1215.25 -37.8717 1213.05 -38.2553C1140.02 -50.9046 1110.85 -7.22728 1064.33 44.5488C1028.08 84.894 999.866 141.952 952.417 169.364C906.225 196.054 849.787 186.509 799.762 190.919C751.196 195.202 694.815 209.874 650.246 231.82C585.296 263.807 612.675 349.704 546.124 362.305C471.307 376.473 462.349 325.152 417.416 283.32C404.966 271.726 389.812 263.719 374.563 257.219C361.777 251.769 348.548 247.158 334.825 245.253C311.316 241.988 221.548 245.512 222.389 210.189C223.636 157.838 285.597 141.009 320.799 122.315C347.252 108.271 371.33 89.1651 391.826 66.4914C415.954 39.7943 445.86 -4.91792 431.22 -43.9966C431.059 -44.4201 428.977 -52.8224 426.27 -52.9223C370.489 -54.9839 411.004 -5.24952 369.35 34.2687C337.81 64.1901 294.671 78.1378 259.316 102.382C242.986 113.581 222.891 127.405 212.176 145.312C203.8 159.308 202.661 174.754 188.734 184.727C151.426 211.444 35.5093 197.584 4.69565 163.403C-3.75722 154.026 -8.34688 142.875 -12.5758 130.869" stroke="#525252" stroke-miterlimit="10" stroke-linecap="round" stroke-linejoin="round"></path><path d="M353.428 -20.5225C361.762 51.2303 278.176 63.4082 232.389 88.2714C217.339 96.4459 194.196 108.648 184.94 124.622C177.614 137.263 176.397 161.786 162.968 169.681C128.73 189.818 10.0372 184.424 -9.88207 140.659C-30.8385 94.612 55.0473 147.651 57.6993 148.502C70.9203 152.733 87.1829 155.114 100.509 151.367C126.568 144.039 132.519 101.321 147.283 82.6099C185.872 33.7146 259.293 40.6585 281.314 -27.043" stroke="#525252" stroke-miterlimit="10" stroke-linecap="round" stroke-linejoin="round"></path><path d="M264.153 -40.1084C253.43 -20.9426 244.645 -1.88864 227.752 12.1831C198.46 36.5868 154.022 30.7655 125.653 58.7531C108.514 75.6575 107.835 109.19 82.9123 118.076C79.8995 119.151 3.31897 107.844 -2.71853 100.105C-6.61137 95.111 -7.01273 90.852 -7.05271 84.3715C-7.33058 39.7632 50.5689 77.9629 71.2828 79.5211C73.9693 79.7248 76.9014 80.5319 79.3614 79.3613C98.6953 70.1719 95.6368 41.3773 115.829 32.4157C136.148 23.3941 155.074 18.8234 162.175 -5.94392C162.474 -6.98671 158.23 -47.1082 157.563 -48.2109" stroke="#525252" stroke-miterlimit="10" stroke-linecap="round" stroke-linejoin="round"></path><path d="M146.345 -28.9805C139.251 -10.7895 130.744 13.9379 125.61 18.129C112.218 29.0563 96.3815 26.5712 81.9811 33.7429C68.8367 40.2913 62.2892 54.2791 48.1134 58.3464C39.3587 60.8595 29.1238 55.8812 20.7691 53.6318C1.97335 48.5737 -18.3295 47.8585 -17.4009 20.0268C-17.272 16.1633 -16.7766 5.04814 -11.918 4.77645C6.86007 3.72168 20.9729 23.1471 39.9429 17.6415C49.5065 14.8647 55.8467 5.12004 64.9468 2.36323C75.7663 -0.912968 85.9198 0.609272 95.879 -6.02704" stroke="#525252" stroke-miterlimit="10" stroke-linecap="round" stroke-linejoin="round"></path><path d="M441.391 -13.5311C437.003 81.7585 377.356 115.443 302.497 145.516C283.322 153.219 216.832 169.78 231.928 205.926C244.064 234.989 359.196 217.441 390.991 231.557C443.96 255.073 441.788 343.075 520.182 339.528C571.793 337.19 592.613 277.428 621.046 240.53C633.432 224.461 651.237 211.987 667.988 201.851C729.252 164.778 800.615 170.184 868.115 163.975C892.261 161.754 916.505 153.915 939.631 146.563C953.213 142.248 968.176 137.917 979.707 128.7C1007.71 106.322 1027.02 72.9966 1046.54 42.7237C1060.3 21.3725 1070.08 -3.47077 1087.2 -22.1092C1088.59 -23.6194 1102.12 -33.2882 1101.88 -37.2756C1100.8 -55.1349 1025.58 -34.4589 1014.46 -29.5006C960.042 -5.24072 958.062 50.5346 917.465 89.4975C846.192 157.898 725.888 117.337 640.107 171.031C599.573 196.405 581.551 274.311 522.781 265.334C478.523 258.565 518.611 183.812 490.167 170.264C457.617 154.762 414.515 170.479 381.916 178.55C354.453 185.35 326.66 197.001 298.247 197.864C293.938 197.996 286.353 194.627 287.695 189.038C292.555 168.805 354.699 159.976 370.914 155.365C439.193 135.943 525.522 75.3499 494.142 -14.5819" stroke="#525252" stroke-miterlimit="10" stroke-linecap="round" stroke-linejoin="round"></path><path d="M517.534 -12.1347C518.764 18.9213 525.037 57.6484 511.646 87.0144C505.331 100.866 496.196 110.283 483.296 116.584C479.824 118.278 471.727 119.053 473.389 122.713C481.999 141.655 512.925 122.074 523.2 140.029C531.079 153.801 528.052 202.157 533.914 204.051C579.562 218.817 612.165 126.385 657.544 101.254C721.189 66.0027 811.556 139.865 860.179 87.0743C879.622 65.9588 893.745 35.2183 908.351 10.5309C917.381 -4.73538 939.776 -42.7353 939.27 -43.5743C935.509 -49.7951 921.236 -49.7192 915.33 -49.6034C849.322 -48.3248 882.934 7.52647 824.066 38.4466C761.467 71.3285 695.482 -8.0275 659.186 5.24112C628.747 16.3722 623.715 82.2159 590.415 106.316C582.502 112.041 573 114.327 563.471 113.064C540.679 110.047 545.872 93.9543 546.161 74.5887C546.262 67.8086 544.279 59.678 546.634 53.1336C558.896 19.0211 602.49 -1.5271 622.271 -29.5027" stroke="#525252" stroke-miterlimit="10" stroke-linecap="round" stroke-linejoin="round"></path><path d="M639.635 -6.53614C617.375 2.35356 554.427 47.1456 562.557 79.2205C563.592 83.2957 567.721 85.653 571.433 85.5931C610.07 84.9818 624.597 -2.22113 659.427 -17.7671C718.966 -44.3443 752.986 30.4529 786.826 23.3132C815.933 17.1683 824.172 -18.0988 850.842 -29.6094" stroke="#525252" stroke-miterlimit="10" stroke-linecap="round" stroke-linejoin="round"></path><path d="M1275.06 -13.5312C1157.96 -8.52102 1118.41 122.391 1041.31 194.907C964.385 267.259 859.327 253.119 765.54 266.892C753.199 268.705 686.876 281.095 696.9 303.269C712.699 338.213 778.35 316.27 807.42 328.72C824.775 336.155 831.472 353.239 842.085 368.482C858.491 392.039 882.96 404.14 909.236 410.429C1004.66 433.271 1057.38 379.01 1132.81 330.666C1149.17 320.174 1168.05 307.544 1187.41 304.556C1260.7 293.245 1320.49 353.076 1389.54 366.664C1401 368.917 1451.46 370.128 1452.5 367.051C1454.17 362.117 1460.86 325.044 1458.25 322.036C1453.2 316.226 1436.51 323.626 1430.55 325.496C1395.71 336.435 1352.64 337.154 1318.72 322.387C1271.3 301.739 1221.3 261.258 1167.3 268.558C1083.58 279.88 1029.25 372.497 941.531 372.465C900.206 372.449 900.529 343.918 869.235 332.028C854.044 326.259 793.676 326.307 788.002 312.247C779.475 291.119 842.122 295.978 845.771 296.158C909.911 299.306 983.94 296.929 1042.78 266.188C1094.76 239.036 1106.82 180.404 1140.85 135.552C1212.33 41.3452 1262.76 6.56545 1381.46 -5.00914" stroke="#525252" stroke-miterlimit="10" stroke-linecap="round" stroke-linejoin="round"></path><path d="M1458.71 26.1868L1458.85 -12.1328C1365.22 15.9347 1253.71 37.0223 1181.6 113.557C1145.99 151.349 1125.54 220.725 1092.75 248.349C1045.44 288.215 991.298 292.913 934.636 307.269C926.056 309.442 884.112 314.64 897.931 334.425C913.67 356.963 952.887 339.739 970.655 330.702C1038.9 295.986 1105.48 264.546 1178.49 242.799C1211.94 232.835 1241.74 223.794 1275.45 236.543C1296.7 244.577 1325.19 268.306 1343.34 281.682C1378.36 307.497 1420.15 284.711 1457.73 278.562L1457.9 234.465C1421.72 245.728 1376.88 258.361 1356.32 248.773C1332.15 237.502 1364.53 190.129 1301.36 185.174C1277.21 183.276 1192.5 200.776 1187.18 168.526C1180.98 130.925 1222.77 110.461 1249.08 99.3943C1316.56 71.0149 1386.52 38.8561 1458.71 26.1868Z" stroke="#525252" stroke-miterlimit="10" stroke-linecap="round" stroke-linejoin="round"></path><path d="M1450.98 67.5977C1434.21 71.4773 1243.87 114.22 1255.86 146.71C1269.72 184.326 1332.66 155.236 1358.14 163.295C1398.51 176.064 1357.59 228.156 1399.79 227.828C1410.52 227.748 1421.34 225.211 1431.73 222.606C1440.1 220.504 1458.56 219.082 1464.82 210.983C1499.86 165.62 1412.69 195.589 1409.4 192.037C1398.91 180.731 1422.67 159.068 1420.69 145.879C1418.16 129.11 1398.88 131.895 1388.19 126.877C1387.53 126.565 1387.34 125.694 1387.51 124.919C1391.81 105.082 1411.14 100.571 1427.69 97.6469C1439.6 95.5414 1444.97 96.0728 1456.44 94.0791" stroke="#525252" stroke-miterlimit="10" stroke-linecap="round" stroke-linejoin="round"></path><path d="M1450.98 469.042C1325.53 445 1183.69 457.51 1067.23 514.608C1039.78 528.067 979.747 558.78 969.262 588.115C957.735 620.358 979.2 632.687 987.656 660.744C996.862 691.292 999.146 723.842 987.716 754.019C968.824 803.899 928.47 828.947 891.742 862.231C890.827 863.058 872.989 877.363 873.105 877.654C873.975 879.862 885.994 881.283 887.996 881.593C939.724 889.6 987.199 827.457 1005.98 782.268C1016.95 755.891 1020.33 727.07 1017.69 698.386C1015.06 669.824 984.034 623.609 1005.28 597.865C1060.8 530.62 1313.09 481.397 1387.65 513.503C1414.66 525.135 1429.84 550.31 1445.03 575.254" stroke="#525252" stroke-miterlimit="10" stroke-linecap="round" stroke-linejoin="round"></path><path d="M998.045 892.87C1019.95 833.408 1116.18 801.457 1117.77 734.772C1119.05 681.008 977.116 675.875 1048.54 610.922C1088.16 574.888 1288.24 522.41 1342.42 542.172C1374 553.69 1396.39 577.788 1418.15 603.409C1435.31 623.614 1451.56 646.321 1448.79 674.669C1448.46 678.029 1446.35 701.73 1442.92 702.678C1438.96 703.776 1387.8 639.906 1373.4 628.561C1324.8 590.286 1275.31 589.711 1218.3 602.832C1205.31 605.821 1192.59 609.858 1179.91 614.034C1166.49 618.448 1154.53 624.173 1142.67 632.165C1086.79 669.813 1246.42 683.753 1210.14 740.911C1191.42 770.396 1064.52 845.732 1067.47 869.164C1069.77 887.297 1091.91 886.294 1113.09 880.961" stroke="#525252" stroke-miterlimit="10" stroke-linecap="round" stroke-linejoin="round"></path><path d="M1113.09 880.961C1130.25 876.641 1146.78 869.48 1151.62 867.347C1181.7 854.103 1256.83 779.819 1275.66 752.066C1314.5 694.843 1192.73 685.823 1218.65 654.258C1227.1 643.961 1239.66 637.82 1251.94 634.789C1270.51 630.206 1296.08 626.38 1314.61 631.637C1345.5 640.397 1388.45 687.904 1404.07 718.112C1411.99 733.414 1415.38 750.455 1419.01 767.306C1422.71 784.46 1443.82 874.5 1434.8 878.571C1429.72 880.865 1389.53 896.548 1382.71 891.186C1377.43 887.034 1373.86 879.359 1372.9 872.546C1371.05 859.493 1375.6 845.8 1376.3 832.677C1377.91 802.26 1376.67 768.039 1369.18 738.576C1362.01 710.329 1344.15 687.932 1316.74 682.286C1314.73 681.874 1309.38 679.685 1308.21 681.409C1294.12 702.045 1351.16 756.464 1302.81 806.403C1282.62 827.256 1251.88 841.52 1237.25 867.313" stroke="#525252" stroke-miterlimit="10" stroke-linecap="round" stroke-linejoin="round"></path><path d="M524.101 876.083C509.48 858 499.1 837.239 487.002 817.232C443.048 744.539 431.731 701.8 489.575 639.227C504.166 623.442 523.955 606.915 530.986 585.165C549.777 527.062 518.255 487.235 575.502 445.065C590.911 433.714 610.857 427.346 629.288 425.252C732.668 413.51 738.59 500.248 816.905 534.988C865.193 556.409 921.38 534.479 956.052 586.878C974.465 614.705 961.302 641.038 962.45 670.511C963.128 687.918 970.861 703.103 969.173 720.88C967.955 733.678 962.378 745.87 956.093 756.678C936.638 790.131 901.572 811.843 873.736 836.129C842.637 863.26 815.57 921.968 772.565 876.98C756.252 859.919 799.992 819.749 810.241 808.803C830.922 786.704 890.686 751.769 895.767 716.126C897.747 702.263 889.388 689.556 890.33 676.007C891.23 663.018 903.26 647.087 900.848 634.035C891.916 585.718 820.433 601.403 788.513 588.982C761.082 578.308 753.395 552.641 733.231 532.93C696.548 497.073 641.078 459.972 588.323 468.497C522.481 479.135 570.676 577.625 558.931 614.892C543.035 665.328 484.122 672.876 510.627 735.903C519.841 757.809 540.871 773.526 555.072 791.376C574.482 815.779 596.093 850.11 601.422 881.939" stroke="#525252" stroke-miterlimit="10" stroke-linecap="round" stroke-linejoin="round"></path><path d="M633.069 884.478C627.136 844.562 619.647 791.8 588.384 764.156C568.872 746.906 520.306 749.538 514.707 717.546C508.764 683.574 565.711 654.747 578.615 625.254C592.194 594.211 551.154 516.235 571.246 499.586C581.367 491.199 595.94 492.662 607.475 496.397C645.069 508.568 673.673 539.961 694.842 574.255C703.823 588.807 713.84 604.868 727.977 614.442C757.61 634.508 786.826 613.041 818.255 617.097C830.93 618.733 840.294 628.026 845.262 640.072C871.944 704.766 797.874 732.158 779.851 783.771C769.505 813.403 742.422 855.227 747.879 886.434C748.171 888.086 773.086 880.347 771.744 881.675C737.202 915.86 713.015 824.909 730.104 789.757C750.23 748.368 822.698 738.602 814.805 682.936C805.936 620.42 728 672.808 694.767 654.811C673.962 643.544 662.787 596.866 639.616 598.402C609.691 600.386 639.777 648.014 629.311 664.436C621.234 677.11 571.482 682.238 571.884 691.842C572.679 710.953 629.994 743.122 644.082 766.962C659.187 792.529 666.575 823.577 665.664 853.707C665.266 866.854 661.835 881.457 664.212 894.574" stroke="#525252" stroke-miterlimit="10" stroke-linecap="round" stroke-linejoin="round"></path><path d="M718.403 885.873C683.652 840.678 678.92 783.14 727.572 749.641C740.416 740.798 791.765 720.026 791.75 701.161C791.746 699.329 790.947 697.303 790.208 695.703C776.202 665.355 732.451 694.686 710.517 693.669C688.1 692.628 653.727 651.645 636.398 688.557C628.85 704.634 655.347 731.764 660.571 746.157C677.581 793.042 687.556 848.867 681.158 898.617" stroke="#525252" stroke-miterlimit="10" stroke-linecap="round" stroke-linejoin="round"></path><path d="M378.371 892.868C353.876 821.652 334.993 730.079 377.419 661.435C392.812 636.525 414.649 612.561 423.934 584.026C434.719 550.879 438.15 501.366 403.759 481.762C295.495 420.049 217.266 586.387 150.298 638.836C133.772 651.779 113.692 665.33 93.9226 671.952C80.6768 676.388 67.1633 681.285 53.6258 684.579C28.9568 690.581 -17.6684 690.7 -11.9328 729.31C-11.2665 733.797 -11.3624 746.815 -8.37635 750.723C1.25749 763.332 75.7864 726.861 92.2088 719.232C140.071 696.997 176.965 663.076 209.428 620.412C233.853 588.312 253.652 559.952 287.534 538.051C303.021 528.04 359.132 501.3 375.889 513.754C385.136 520.627 391.616 532.607 394.575 543.975C411.446 608.744 331.919 649.024 308.759 697.871C274.732 769.634 291.282 796.802 323.776 862.625" stroke="#525252" stroke-miterlimit="10" stroke-linecap="round" stroke-linejoin="round"></path><path d="M307.478 884.476C294.152 853.7 264.128 756.625 266.767 723.618C267.85 710.075 272.68 695.4 280.487 684.521C303.242 652.813 344.046 642.443 363.388 607.72C376.852 583.552 378.754 541.201 349.798 530.889C319.393 520.062 283.524 557.216 264.081 576.749C207.745 633.348 163.741 704.147 98.489 750.327C74.9836 766.963 46.0963 776.019 19.2542 784.388C10.3838 787.153 -5.86601 784.803 -13.0064 791.041C-27.0434 803.303 -28.567 863.858 -14.8554 878.251C8.89845 903.186 63.1483 846.911 79.5301 830.402C127.985 781.571 165.626 720.807 206.671 665.056C221.742 644.585 234.424 624.054 254.425 608.145C266.19 598.785 319.747 563.668 334.179 574.641C360.676 594.786 268.289 658.991 256.096 669.295C246.908 677.06 238.945 685.879 233.017 696.729C198.348 760.185 245.905 838.458 279.651 886.432" stroke="#525252" stroke-miterlimit="10" stroke-linecap="round" stroke-linejoin="round"></path><path d="M-25.9883 666.269C149.717 679.312 162.247 539.952 283.399 466.367C316.377 446.336 356.599 437.969 393.282 449.592C404.123 453.028 448.062 480.597 457.212 470.437C489.976 434.066 391.448 367.979 371.828 353.803C353.845 340.806 337.927 325.991 318.587 315.012C239.696 270.22 151.727 294.172 67.1628 280.304C47.455 277.072 29.4622 272.142 11.0163 263.907C4.97088 261.206 -3.55055 253.951 -9.93083 252.616C-11.4698 252.293 -27.0773 284.399 -7.67629 302.734C16.0109 325.12 55.6675 333.023 85.0998 342.045C146.986 361.015 212.798 351.154 274.317 373.716C279.83 375.738 326.268 388.515 326.951 396.901C328.731 418.744 240.517 437.138 227.023 441.641C210.089 447.295 193.056 454.75 177.97 464.754C157.27 478.481 146.641 500.244 131.542 519.742C96.5193 564.966 49.5824 601.806 -7.61037 600.803" stroke="#525252" stroke-miterlimit="10" stroke-linecap="round" stroke-linejoin="round"></path><path d="M-14.1724 575.35C66.9172 573.48 76.8884 549.432 125.368 486.099C135.791 472.483 145.373 459.03 159.282 449.193C189.945 427.51 227.601 421.593 261.339 406.726C264.123 405.5 273.689 402.072 271.084 398.001C249.379 364.1 139.925 387.772 105.297 386.302C64.4207 384.572 32.0981 373.153 -5.9611 358.77C-6.70057 358.49 -9.74335 357.04 -10.5128 357.487C-13.6358 359.309 -16.0065 362.646 -17.3765 366.046C-49.0219 444.595 113.008 403.53 122.356 426.54C123.543 429.464 123.251 432.497 122.848 435.581C118.941 465.585 72.9554 469.616 52.7047 480.33C41.9804 486.003 35.3346 495.824 27.1057 504.672C21.8839 510.287 -10.3077 534.405 -17.5801 526.02" stroke="#525252" stroke-miterlimit="10" stroke-linecap="round" stroke-linejoin="round"></path><path d="M-31.8303 530.815C-41.8691 519.24 -23.415 504.109 -13.1722 494.873C15.1834 469.302 89.8189 452.162 36.6545 440.511C28.6339 438.753 20.2069 439.6 12.0843 439.624C-0.348677 439.656 -10.27 435.881 -22.24 433.879" stroke="#525252" stroke-miterlimit="10" stroke-linecap="round" stroke-linejoin="round"></path></g></g></g><defs><clipPath id="clip0_10801_26237"><rect width="1440" height="863" fill="white" transform="translate(0 -2)"></rect></clipPath></defs></svg>