<svg xmlns="http://www.w3.org/2000/svg" width="278" height="30" viewBox="0 0 278 30" fill="none"><g clip-path="url(#clip0_7385_919)"><path d="M0.5 3C0.5 1.61929 1.61929 0.5 3 0.5H43C44.3808 0.5 45.5 1.61929 45.5 3V27C45.5 28.3808 44.3808 29.5 43 29.5H3C1.61929 29.5 0.5 28.3808 0.5 27V3Z" fill="white" stroke="#EEEEEE"></path><path d="M20.6679 19.9083H17.8359L19.6072 9.5625H22.4391L20.6679 19.9083Z" fill="#00579F"></path><path d="M30.9327 9.81546C30.3741 9.60613 29.4882 9.375 28.3927 9.375C25.596 9.375 23.6266 10.7837 23.6145 12.7977C23.5912 14.2837 25.0245 15.109 26.0965 15.6045C27.1922 16.1108 27.5646 16.4412 27.5646 16.8925C27.5535 17.5856 26.6792 17.9051 25.8639 17.9051C24.7332 17.9051 24.1274 17.7404 23.2067 17.3548L22.8338 17.1895L22.4375 19.5119C23.1017 19.7977 24.3255 20.0514 25.596 20.0625C28.5675 20.0625 30.5021 18.6756 30.525 16.5293C30.5363 15.3516 29.7795 14.4491 28.1478 13.7117C27.1573 13.2384 26.5507 12.9192 26.5507 12.4348C26.5623 11.9945 27.0638 11.5435 28.1819 11.5435C29.1026 11.5214 29.779 11.7305 30.2915 11.9396L30.5476 12.0495L30.9327 9.81546Z" fill="#00579F"></path><path d="M34.7019 16.2431C34.9351 15.6488 35.8325 13.3485 35.8325 13.3485C35.8208 13.3706 36.0653 12.7432 36.2051 12.358L36.4031 13.2494C36.4031 13.2494 36.9394 15.7259 37.0558 16.2431C36.6132 16.2431 35.2612 16.2431 34.7019 16.2431ZM38.1976 9.5625H36.0071C35.3315 9.5625 34.8183 9.74945 34.5269 10.4209L30.3203 19.9081H33.2918C33.2918 19.9081 33.781 18.6312 33.8862 18.3562C34.2122 18.3562 37.1029 18.3562 37.5223 18.3562C37.6036 18.7194 37.8602 19.9081 37.8602 19.9081H40.4823L38.1976 9.5625Z" fill="#00579F"></path><path d="M15.4685 9.5625L12.6951 16.6173L12.392 15.1865C11.8793 13.5356 10.2711 11.7418 8.47656 10.8499L11.017 19.8973H14.0117L18.4632 9.5625H15.4685Z" fill="#00579F"></path><path d="M10.1265 9.5625H5.57005L5.52344 9.77154C9.07773 10.6301 11.4316 12.6996 12.3988 15.187L11.4083 10.4322C11.2452 9.77139 10.744 9.5843 10.1265 9.5625Z" fill="#FAA61A"></path><path d="M58.5 3C58.5 1.61929 59.6192 0.5 61 0.5H101C102.381 0.5 103.5 1.61928 103.5 3V27C103.5 28.3808 102.381 29.5 101 29.5H61C59.6192 29.5 58.5 28.3808 58.5 27V3Z" fill="white" stroke="#EEEEEE"></path><path fill-rule="evenodd" clip-rule="evenodd" d="M80.9966 22.0365C79.4305 23.4137 77.3991 24.245 75.1793 24.245C70.2262 24.245 66.2109 20.1059 66.2109 15C66.2109 9.89404 70.2262 5.75488 75.1793 5.75488C77.3991 5.75488 79.4305 6.58624 80.9966 7.96339C82.5626 6.58624 84.5941 5.75488 86.8139 5.75488C91.767 5.75488 95.7823 9.89404 95.7823 15C95.7823 20.1059 91.767 24.245 86.8139 24.245C84.5941 24.245 82.5626 23.4137 80.9966 22.0365Z" fill="#ED0006"></path><path fill-rule="evenodd" clip-rule="evenodd" d="M81 22.0365C82.9284 20.3408 84.1511 17.8176 84.1511 15C84.1511 12.1823 82.9284 9.6591 81 7.96339C82.5661 6.58624 84.5975 5.75488 86.8173 5.75488C91.7704 5.75488 95.7857 9.89404 95.7857 15C95.7857 20.1059 91.7704 24.245 86.8173 24.245C84.5975 24.245 82.5661 23.4137 81 22.0365Z" fill="#F9A000"></path><path fill-rule="evenodd" clip-rule="evenodd" d="M81.0026 7.96338C82.9309 9.6591 84.1536 12.1823 84.1536 14.9999C84.1536 17.8175 82.9309 20.3407 81.0026 22.0364C79.0743 20.3407 77.8516 17.8175 77.8516 14.9999C77.8516 12.1823 79.0743 9.6591 81.0026 7.96338Z" fill="#FF5E00"></path><path d="M116.5 3C116.5 1.61928 117.619 0.5 119 0.5H159C160.381 0.5 161.5 1.61928 161.5 3V27C161.5 28.3808 160.381 29.5 159 29.5H119C117.619 29.5 116.5 28.3808 116.5 27V3Z" fill="white" stroke="#EEEEEE"></path><path d="M120.323 8.95029H118.422V15.8253H120.323C121.327 15.8253 122.054 15.5753 122.695 15.0378C123.458 14.3878 123.906 13.4128 123.906 12.4003C123.894 10.3628 122.429 8.95029 120.323 8.95029ZM121.848 14.1253C121.436 14.5003 120.916 14.6753 120.068 14.6753H119.717V10.1253H120.068C120.904 10.1253 121.412 10.2753 121.848 10.6753C122.296 11.0878 122.562 11.7253 122.562 12.3878C122.562 13.0503 122.296 13.7128 121.848 14.1253ZM124.499 8.95029H125.794V15.8253H124.499V8.95029ZM128.966 11.5878C128.191 11.2878 127.961 11.0878 127.961 10.7253C127.961 10.2878 128.373 9.96279 128.929 9.96279C129.317 9.96279 129.644 10.1253 129.97 10.5253L130.648 9.61279C130.091 9.11279 129.426 8.85029 128.687 8.85029C127.513 8.85029 126.605 9.70029 126.605 10.8253C126.605 11.7753 127.029 12.2628 128.239 12.7128C128.748 12.9003 129.002 13.0253 129.135 13.1003C129.389 13.2753 129.523 13.5253 129.523 13.8128C129.523 14.3753 129.099 14.7878 128.518 14.7878C127.9 14.7878 127.404 14.4628 127.101 13.8753L126.266 14.7128C126.859 15.6253 127.586 16.0253 128.566 16.0253C129.91 16.0253 130.866 15.1003 130.866 13.7628C130.89 12.6503 130.443 12.1503 128.966 11.5878ZM131.29 12.4003C131.29 14.4253 132.827 15.9878 134.8 15.9878C135.357 15.9878 135.841 15.8753 136.423 15.5878V14.0128C135.902 14.5503 135.442 14.7628 134.861 14.7628C133.554 14.7628 132.621 13.7878 132.621 12.3878C132.621 11.0628 133.578 10.0253 134.8 10.0253C135.418 10.0253 135.89 10.2503 136.423 10.8003V9.22529C135.854 8.92529 135.381 8.80029 134.825 8.80029C132.876 8.80029 131.29 10.4003 131.29 12.4003ZM146.736 13.5753L144.957 8.95029H143.54L146.361 16.0003H147.063L149.932 8.95029H148.528L146.736 13.5753ZM150.525 15.8253H154.205V14.6628H151.82V12.8128H154.12V11.6503H151.82V10.1253H154.205V8.95029H150.525V15.8253ZM159.35 10.9878C159.35 9.70029 158.49 8.96279 156.989 8.96279H155.065V15.8378H156.36V13.0753H156.529L158.321 15.8378H159.919L157.825 12.9378C158.805 12.7253 159.35 12.0378 159.35 10.9878ZM156.735 12.1253H156.36V10.0378H156.759C157.57 10.0378 158.006 10.3878 158.006 11.0628C158.006 11.7503 157.57 12.1253 156.735 12.1253Z" fill="#231F20"></path><path d="M140.407 16.0751C141.348 16.0751 142.251 15.6891 142.916 15.002C143.581 14.3149 143.955 13.383 143.955 12.4113C143.955 11.4396 143.581 10.5077 142.916 9.82065C142.251 9.13356 141.348 8.74756 140.407 8.74756C139.466 8.74756 138.564 9.13356 137.898 9.82065C137.233 10.5077 136.859 11.4396 136.859 12.4113C136.859 13.383 137.233 14.3149 137.898 15.002C138.564 15.6891 139.466 16.0751 140.407 16.0751Z" fill="url(#paint0_linear_7385_919)"></path><path opacity="0.65" d="M140.407 16.0751C141.348 16.0751 142.251 15.6891 142.916 15.002C143.581 14.3149 143.955 13.383 143.955 12.4113C143.955 11.4396 143.581 10.5077 142.916 9.82065C142.251 9.13356 141.348 8.74756 140.407 8.74756C139.466 8.74756 138.564 9.13356 137.898 9.82065C137.233 10.5077 136.859 11.4396 136.859 12.4113C136.859 13.383 137.233 14.3149 137.898 15.002C138.564 15.6891 139.466 16.0751 140.407 16.0751Z" fill="url(#paint1_linear_7385_919)"></path><path d="M160.271 9.38232C160.271 9.25732 160.186 9.19482 160.053 9.19482H159.859V9.79482H160.005V9.55732L160.174 9.79482H160.344L160.15 9.54482C160.223 9.53232 160.271 9.46982 160.271 9.38232ZM160.029 9.46982H160.005V9.30732H160.029C160.102 9.30732 160.138 9.33232 160.138 9.38232C160.138 9.44482 160.102 9.46982 160.029 9.46982Z" fill="#231F20"></path><path d="M160.078 8.97021C159.8 8.97021 159.57 9.20771 159.57 9.49521C159.57 9.78271 159.8 10.0202 160.078 10.0202C160.357 10.0202 160.587 9.78271 160.587 9.49521C160.587 9.20771 160.357 8.97021 160.078 8.97021ZM160.078 9.93271C159.86 9.93271 159.667 9.74521 159.667 9.49521C159.667 9.25771 159.848 9.05771 160.078 9.05771C160.296 9.05771 160.478 9.25771 160.478 9.49521C160.478 9.73271 160.296 9.93271 160.078 9.93271Z" fill="#231F20"></path><path d="M161.97 15.9375C161.97 15.9375 149.618 25.6097 127.039 30H159.476C160.134 30 160.765 29.7073 161.232 29.1855C161.699 28.6638 161.964 27.9553 161.969 27.2145L161.999 22.9744L161.97 15.9389V15.9375Z" fill="#F48120"></path><path d="M174.5 3C174.5 1.61928 175.619 0.5 177 0.5H217C218.381 0.5 219.5 1.61928 219.5 3V27C219.5 28.3808 218.381 29.5 217 29.5H177C175.619 29.5 174.5 28.3808 174.5 27V3Z" fill="white" stroke="#EEEEEE"></path><path d="M202.929 10.375C203.171 9.125 202.929 8.25 202.202 7.5C201.476 6.625 200.145 6.25 198.45 6.25H193.487C193.123 6.25 192.881 6.5 192.76 6.875L190.945 19.5C190.945 19.75 191.066 20 191.308 20H194.576L195.06 15.75L197.239 13L202.929 10.375Z" fill="#003087"></path><path d="M202.931 10.375L202.689 10.625C202.083 14.125 200.026 15.375 197.12 15.375H195.789C195.426 15.375 195.183 15.625 195.062 16L194.336 20.875L194.094 22.125C194.094 22.375 194.215 22.625 194.457 22.625H196.999C197.362 22.625 197.604 22.375 197.604 22.125V22L198.089 19V18.875C198.089 18.625 198.452 18.375 198.694 18.375H199.057C201.599 18.375 203.536 17.375 204.02 14.375C204.262 13.125 204.141 12.125 203.536 11.375C203.415 10.75 203.173 10.5 202.931 10.375Z" fill="#3086C8"></path><path d="M202.204 10.125C202.083 10 201.962 10 201.841 10C201.72 10 201.6 10 201.479 9.875C201.116 9.75 200.63 9.75 200.146 9.75H196.516C196.395 9.75 196.273 9.75 196.273 9.875C196.03 10 195.91 10.125 195.91 10.375L195.062 15.875V16C195.062 15.625 195.425 15.375 195.788 15.375H197.363C200.389 15.375 202.325 14.125 202.93 10.625V10.375C202.809 10.25 202.568 10.125 202.326 10.125H202.204Z" fill="#012169"></path><path d="M232.5 3C232.5 1.61928 233.619 0.5 235 0.5H275C276.381 0.5 277.5 1.61928 277.5 3V27C277.5 28.3808 276.381 29.5 275 29.5H235C233.619 29.5 232.5 28.3808 232.5 27V3Z" fill="white" stroke="#EEEEEE"></path><path fill-rule="evenodd" clip-rule="evenodd" d="M260.862 15.8672H262.488C262.515 15.8676 262.541 15.8693 262.568 15.8722C262.601 15.876 262.633 15.881 262.665 15.8872L262.675 15.8892C262.722 15.9006 262.767 15.9173 262.81 15.9392C262.916 15.9909 263.008 16.0699 263.079 16.1692C263.144 16.2597 263.19 16.365 263.213 16.4772C263.255 16.6793 263.226 16.891 263.132 17.0712C263.073 17.1813 262.99 17.2738 262.891 17.3402C262.824 17.3849 262.751 17.4174 262.675 17.4362L262.665 17.4387C262.651 17.4424 262.636 17.4451 262.622 17.4467C262.577 17.4536 262.533 17.4576 262.488 17.4587H260.862V15.8672ZM263.025 14.0652C263.059 14.2354 263.04 14.413 262.971 14.5702C262.913 14.6988 262.819 14.8043 262.702 14.8722C262.636 14.9129 262.563 14.9408 262.488 14.9547L262.481 14.9557C262.466 14.9588 262.45 14.961 262.434 14.9622C262.398 14.966 262.362 14.9683 262.326 14.9692H260.862V13.5007H262.353C262.389 13.5023 262.425 13.5056 262.461 13.5107L262.481 13.5132L262.488 13.5147C262.543 13.5252 262.597 13.5432 262.649 13.5682C262.696 13.5917 262.741 13.6205 262.783 13.6542C262.834 13.6966 262.879 13.7468 262.917 13.8032C262.969 13.8815 263.006 13.9707 263.025 14.0652ZM266.357 6.44824H266.368V21.5352C266.367 21.9197 266.3 22.3006 266.169 22.6577C266.091 22.8677 265.992 23.0673 265.873 23.2527C265.856 23.2801 265.838 23.3071 265.819 23.3337L265.792 23.3717C265.766 23.4085 265.739 23.4447 265.712 23.4802L265.685 23.5147L265.658 23.5472C265.64 23.5687 265.623 23.5898 265.605 23.6107L265.577 23.6407L265.551 23.6707L265.524 23.6992L265.497 23.7272C265.453 23.7718 265.409 23.8148 265.363 23.8562L265.336 23.8802L265.309 23.9037L265.282 23.9262L265.255 23.9482L265.228 23.9697L265.201 23.9912L265.175 24.0112L265.147 24.0317L265.121 24.0512L265.094 24.0702L265.067 24.0887C265.049 24.101 265.031 24.113 265.013 24.1247L264.986 24.1422C264.978 24.1478 264.969 24.1533 264.96 24.1587L264.933 24.1752L264.906 24.1912L264.879 24.2062L264.852 24.2217L264.825 24.2367L264.798 24.2507L264.772 24.2647L264.744 24.2782L264.718 24.2917L264.691 24.3042L264.664 24.3167L264.637 24.3287L264.61 24.3407L264.583 24.3522L264.556 24.3632L264.53 24.3737L264.502 24.3837C264.494 24.3872 264.485 24.3912 264.476 24.3942L264.449 24.4037L264.422 24.4132L264.395 24.4222L264.368 24.4307L264.341 24.4392L264.315 24.4472L264.288 24.4552L264.261 24.4622L264.234 24.4697L264.207 24.4767L264.18 24.4827L264.153 24.4892L264.127 24.4952L264.099 24.5002L264.073 24.5062L264.046 24.5112L264.019 24.5157L263.992 24.5202L263.965 24.5242L263.938 24.5282L263.911 24.5317L263.885 24.5347L263.858 24.5377L263.831 24.5407L263.804 24.5432L263.777 24.5452L263.75 24.5472C263.741 24.5472 263.732 24.5482 263.723 24.5487L263.697 24.5497L263.67 24.5507L263.643 24.5517H263.616L263.589 24.5522H259.501V18.4012H263.858L263.885 18.4002L263.911 18.3997C263.921 18.3997 263.93 18.3987 263.938 18.3982L263.965 18.3972L263.992 18.3952L264.019 18.3932L264.046 18.3912L264.073 18.3882L264.099 18.3857L264.127 18.3822L264.153 18.3787L264.18 18.3747L264.207 18.3707L264.234 18.3657L264.261 18.3607L264.288 18.3557L264.315 18.3507L264.341 18.3442L264.368 18.3382C264.377 18.336 264.386 18.3336 264.395 18.3312L264.422 18.3242C264.458 18.3146 264.494 18.304 264.53 18.2922L264.556 18.2832C264.583 18.274 264.61 18.264 264.637 18.2532L264.664 18.2417L264.691 18.2307L264.718 18.2187C264.884 18.1422 265.038 18.0376 265.175 17.9087C265.244 17.84 265.307 17.7636 265.363 17.6807C265.449 17.5473 265.513 17.3979 265.551 17.2397C265.577 17.1267 265.59 17.0104 265.589 16.8937C265.589 16.7806 265.576 16.6679 265.551 16.5582C265.507 16.3738 265.424 16.203 265.309 16.0592C265.238 15.9687 265.157 15.8884 265.067 15.8202C264.983 15.7542 264.893 15.6974 264.798 15.6507C264.772 15.6373 264.745 15.6247 264.718 15.6127L264.691 15.6007C264.682 15.597 264.673 15.5933 264.664 15.5897L264.637 15.5792C264.602 15.5655 264.566 15.5526 264.53 15.5407L264.502 15.5322C264.449 15.5156 264.396 15.5012 264.341 15.4892L264.315 15.4832L264.288 15.4777L264.261 15.4727C264.252 15.471 264.243 15.4693 264.234 15.4677L264.207 15.4627C264.198 15.4613 264.189 15.46 264.18 15.4587L264.153 15.4547L264.127 15.4507L264.099 15.4477L264.073 15.4447L264.046 15.4417L264.019 15.4392L263.994 15.4372V15.4022L264.019 15.3982L264.046 15.3932L264.073 15.3882L264.099 15.3832L264.127 15.3767L264.153 15.3702C264.254 15.3455 264.353 15.3119 264.449 15.2697C264.563 15.2181 264.671 15.1518 264.771 15.0722C264.931 14.9426 265.06 14.7737 265.147 14.5792C265.205 14.4466 265.242 14.304 265.255 14.1577C265.264 14.0625 265.264 13.9665 265.255 13.8712C265.244 13.7483 265.216 13.6276 265.175 13.5127C265.115 13.3518 265.023 13.2071 264.906 13.0887C264.856 13.0367 264.802 12.9896 264.745 12.9477C264.669 12.8907 264.587 12.8418 264.502 12.8017C264.433 12.7681 264.361 12.7392 264.288 12.7152L264.261 12.7067C264.243 12.7011 264.225 12.6958 264.207 12.6907L264.18 12.6837C264.162 12.6788 264.144 12.6741 264.127 12.6697L264.099 12.6637L264.073 12.6577L264.046 12.6527L264.019 12.6477L263.992 12.6427L263.965 12.6377L263.938 12.6337L263.911 12.6302L263.885 12.6267L263.858 12.6237L263.831 12.6207L263.804 12.6182L263.777 12.6157L263.75 12.6137L263.723 12.6122L263.713 12.6112L263.697 12.6102L263.67 12.6087L263.643 12.6067L263.616 12.6052L263.589 12.6042L263.562 12.6027L263.535 12.6017L263.508 12.6007L263.482 12.6002H263.455L263.44 12.5997H259.5V9.46624C259.501 9.01489 259.594 8.56931 259.773 8.16224C259.821 8.05387 259.875 7.94883 259.934 7.84774C259.952 7.81805 259.97 7.78871 259.988 7.75974L260.015 7.71824C260.033 7.69161 260.051 7.66527 260.069 7.63924L260.096 7.60124L260.123 7.56524C260.14 7.54159 260.158 7.51825 260.176 7.49524L260.203 7.46274L260.23 7.43024C260.256 7.399 260.283 7.36833 260.311 7.33824L260.338 7.30974L260.364 7.28124L260.391 7.25424L260.418 7.22724L260.445 7.20174C260.48 7.16817 260.516 7.13549 260.552 7.10374L260.58 7.08124L260.606 7.05874C260.624 7.04419 260.642 7.02985 260.66 7.01574L260.687 6.99524C260.696 6.98851 260.705 6.98184 260.714 6.97524L260.741 6.95524L260.768 6.93574L260.794 6.91724L260.821 6.89924L260.848 6.88124L260.875 6.86374L260.902 6.84674L260.929 6.83024L260.956 6.81424L260.983 6.79874L261.009 6.78374L261.036 6.76874L261.063 6.75374L261.09 6.74024C261.099 6.73524 261.108 6.73124 261.117 6.72674L261.144 6.71324L261.171 6.70024L261.197 6.68774L261.224 6.67574L261.251 6.66374L261.278 6.65224L261.305 6.64124L261.332 6.63024L261.359 6.62024L261.385 6.60974L261.413 6.59974L261.439 6.59074L261.466 6.58124L261.493 6.57274L261.52 6.56424L261.547 6.55624L261.574 6.54824L261.601 6.54074L261.627 6.53374L261.654 6.52674L261.681 6.52024L261.708 6.51374L261.735 6.50774L261.762 6.50224L261.788 6.49674L261.816 6.49174L261.842 6.48674L261.869 6.48224L261.896 6.47824L261.923 6.47424L261.95 6.47074L261.977 6.46724L262.004 6.46424L262.03 6.46124L262.058 6.45874L262.084 6.45674L262.111 6.45474C262.12 6.45474 262.129 6.45374 262.138 6.45324L262.165 6.45174L262.192 6.45074L262.219 6.44974H262.246L262.272 6.44924H266.357V6.44824Z" fill="#54B230"></path><path fill-rule="evenodd" clip-rule="evenodd" d="M244.094 16.9177V9.46524C244.095 9.01443 244.188 8.56939 244.367 8.16274C244.429 8.02296 244.5 7.88856 244.581 7.76074L244.608 7.71874L244.635 7.67874L244.662 7.63974L244.688 7.60224L244.715 7.56574C244.733 7.54211 244.751 7.51877 244.769 7.49574L244.796 7.46324C244.805 7.45233 244.814 7.4415 244.823 7.43074L244.849 7.39924C244.867 7.37896 244.885 7.35896 244.903 7.33924L244.93 7.31024L244.956 7.28224L244.984 7.25474L245.01 7.22824L245.037 7.20224L245.064 7.17724L245.091 7.15224C245.134 7.11231 245.179 7.07395 245.225 7.03724L245.252 7.01624C245.287 6.98859 245.323 6.96191 245.359 6.93624L245.386 6.91774L245.413 6.89974L245.439 6.88174L245.466 6.86424L245.493 6.84724L245.52 6.83124L245.547 6.81474L245.574 6.79974L245.6 6.78374L245.627 6.76874L245.654 6.75474C245.663 6.74974 245.672 6.74474 245.681 6.74074L245.708 6.72674L245.734 6.71324L245.761 6.70074L245.788 6.68824L245.815 6.67574L245.842 6.66424L245.869 6.65274L245.895 6.64174L245.922 6.63024L245.949 6.62024L245.976 6.61024L246.003 6.60024L246.03 6.59074L246.056 6.58174L246.083 6.57274L246.11 6.56424L246.137 6.55624L246.164 6.54824L246.191 6.54074L246.217 6.53374L246.244 6.52674C246.253 6.52415 246.262 6.52198 246.271 6.52024L246.298 6.51374L246.324 6.50774L246.352 6.50224L246.378 6.49624L246.405 6.49124L246.432 6.48624C246.441 6.48524 246.45 6.48324 246.459 6.48174L246.485 6.47774L246.513 6.47374L246.539 6.47024L246.566 6.46674L246.593 6.46374L246.62 6.46074L246.646 6.45824L246.673 6.45624L246.7 6.45424L246.727 6.45224L246.754 6.45124L246.781 6.44974L246.807 6.44874H246.834L246.861 6.44824H250.961V21.5342C250.961 21.8748 250.908 22.2128 250.804 22.5342C250.7 22.8567 250.546 23.1572 250.348 23.4227L250.321 23.4587C250.304 23.4817 250.286 23.5044 250.268 23.5267L250.241 23.5592L250.214 23.5907L250.187 23.6217C250.152 23.6611 250.117 23.6995 250.08 23.7367L250.053 23.7637L250.026 23.7897L249.999 23.8152L249.973 23.8402L249.946 23.8647L249.919 23.8877L249.892 23.9112L249.866 23.9332L249.838 23.9557L249.812 23.9767L249.785 23.9977L249.758 24.0177L249.731 24.0377L249.705 24.0572L249.677 24.0762C249.669 24.0827 249.66 24.0882 249.651 24.0942L249.624 24.1127L249.597 24.1297L249.57 24.1472C249.561 24.1522 249.552 24.1582 249.544 24.1637C249.526 24.1747 249.508 24.1853 249.49 24.1957L249.463 24.2107L249.436 24.2257L249.409 24.2407L249.383 24.2547L249.356 24.2682L249.329 24.2822L249.302 24.2947L249.275 24.3077L249.248 24.3202L249.222 24.3317L249.195 24.3437L249.168 24.3547L249.141 24.3657L249.114 24.3757L249.088 24.3862L249.061 24.3962L249.034 24.4062C249.025 24.4087 249.016 24.4122 249.007 24.4152L248.98 24.4237L248.953 24.4327L248.927 24.4407L248.9 24.4487L248.873 24.4567L248.846 24.4637L248.819 24.4707L248.792 24.4777L248.766 24.4837L248.739 24.4902L248.712 24.4957L248.685 24.5012L248.658 24.5062L248.631 24.5112L248.605 24.5162L248.578 24.5202L248.551 24.5242L248.524 24.5282L248.497 24.5317L248.47 24.5347L248.444 24.5377L248.417 24.5402L248.39 24.5427L248.363 24.5447L248.336 24.5467L248.309 24.5482L248.283 24.5492L248.256 24.5502L248.229 24.5507H248.202L248.177 24.5517H244.094V18.1932L244.152 18.2097L244.179 18.2167L244.206 18.2237L244.232 18.2307L244.259 18.2377L244.286 18.2447L244.313 18.2512L244.34 18.2577L244.367 18.2642L244.393 18.2707L244.42 18.2767L244.447 18.2832L244.474 18.2892L244.501 18.2952L244.527 18.3012L244.554 18.3072L244.581 18.3127L244.608 18.3187L244.635 18.3242L244.662 18.3297L244.688 18.3352L244.715 18.3407L244.742 18.3462L244.769 18.3512L244.796 18.3567L244.823 18.3617L244.849 18.3667L244.876 18.3717L244.903 18.3767L244.93 18.3817L244.956 18.3867L244.984 18.3917L245.01 18.3967L245.037 18.4007L245.064 18.4057L245.091 18.4102L245.117 18.4147L245.145 18.4187L245.171 18.4232L245.198 18.4272L245.225 18.4317L245.252 18.4357L245.278 18.4397L245.306 18.4437L245.332 18.4477L245.359 18.4517L245.386 18.4552L245.413 18.4592L245.439 18.4627L245.466 18.4667L245.493 18.4702L245.52 18.4737L245.547 18.4772L245.574 18.4802L245.6 18.4837L245.627 18.4872L245.654 18.4902L245.681 18.4932L245.708 18.4962L245.734 18.4992L245.761 18.5022L245.788 18.5052L245.815 18.5082L245.842 18.5107L245.869 18.5132L245.895 18.5162L245.922 18.5187L245.949 18.5212L245.976 18.5237L246.003 18.5257L246.03 18.5282L246.056 18.5302L246.083 18.5327L246.11 18.5347L246.137 18.5367L246.164 18.5387L246.191 18.5407L246.217 18.5427L246.244 18.5442L246.271 18.5462L246.298 18.5477L246.324 18.5492L246.352 18.5507L246.378 18.5522L246.405 18.5537L246.432 18.5552L246.459 18.5567L246.485 18.5577L246.513 18.5587L246.539 18.5597L246.566 18.5607L246.593 18.5617L246.62 18.5627L246.646 18.5637L246.673 18.5642L246.7 18.5652H246.727L246.754 18.5662H246.781L246.807 18.5672H246.861L246.888 18.5677H247.076L247.102 18.5667H247.129L247.156 18.5657L247.183 18.5652L247.21 18.5642L247.237 18.5637L247.263 18.5627L247.29 18.5617L247.317 18.5607L247.344 18.5597L247.371 18.5582L247.398 18.5567L247.424 18.5557L247.451 18.5542L247.478 18.5522L247.505 18.5507L247.531 18.5492L247.559 18.5472L247.585 18.5447L247.612 18.5427L247.639 18.5407L247.666 18.5382L247.692 18.5357L247.72 18.5332L247.746 18.5307L247.773 18.5282L247.8 18.5252L247.827 18.5222L247.853 18.5192L247.88 18.5162L247.907 18.5127L247.934 18.5092L247.961 18.5057L247.988 18.5022L248.014 18.4982L248.041 18.4942L248.068 18.4902L248.095 18.4857L248.122 18.4817L248.149 18.4767L248.175 18.4727L248.202 18.4677L248.229 18.4627L248.256 18.4577L248.283 18.4527L248.309 18.4472L248.336 18.4417L248.363 18.4357C248.372 18.4342 248.381 18.4317 248.39 18.4297L248.417 18.4242L248.444 18.4177L248.47 18.4112L248.497 18.4047L248.524 18.3982L248.551 18.3912L248.578 18.3842L248.605 18.3767L248.631 18.3692L248.658 18.3612L248.685 18.3537L248.712 18.3452L248.739 18.3372L248.766 18.3287L248.792 18.3197L248.819 18.3107L248.846 18.3012L248.873 18.2917L248.9 18.2817L248.927 18.2717L248.953 18.2617L248.98 18.2507L249.007 18.2402L249.034 18.2287L249.061 18.2172L249.088 18.2057L249.114 18.1932L249.141 18.1812L249.168 18.1682L249.195 18.1547L249.222 18.1412C249.231 18.1367 249.24 18.1322 249.248 18.1272L249.275 18.1132L249.302 18.0982L249.329 18.0832L249.356 18.0682C249.383 18.0521 249.41 18.0354 249.436 18.0182L249.463 18.0007L249.49 17.9827L249.517 17.9642L249.544 17.9447L249.57 17.9252C249.579 17.9182 249.589 17.9117 249.597 17.9047L249.624 17.8837L249.651 17.8617C249.678 17.8392 249.705 17.8158 249.731 17.7917L249.758 17.7667L249.785 17.7402L249.812 17.7132C249.83 17.6943 249.848 17.675 249.866 17.6552L249.892 17.6252L249.919 17.5927C250.027 17.4613 250.117 17.314 250.187 17.1552C250.231 17.058 250.267 16.957 250.295 16.8532C250.317 16.7729 250.335 16.6913 250.348 16.6087C250.376 16.4409 250.389 16.2707 250.389 16.1002V12.5992H248.014L247.994 16.1002C247.994 16.2207 247.983 16.3407 247.961 16.4587C247.942 16.5543 247.915 16.6477 247.88 16.7377C247.838 16.8438 247.784 16.9438 247.719 17.0352C247.65 17.1317 247.569 17.217 247.478 17.2887C247.379 17.3673 247.271 17.4303 247.156 17.4757C247.112 17.4936 247.067 17.5092 247.022 17.5227L246.995 17.5307C246.942 17.5457 246.888 17.5577 246.834 17.5667L246.807 17.5717C246.79 17.5745 246.772 17.577 246.754 17.5792L246.727 17.5822L246.7 17.5852L246.673 17.5877C246.655 17.5892 246.638 17.5903 246.62 17.5912L246.593 17.5927L246.566 17.5937H246.539L246.513 17.5947H246.459L246.432 17.5937H246.405L246.378 17.5927L246.352 17.5917L246.324 17.5902L246.298 17.5892L246.271 17.5877L246.244 17.5857L246.217 17.5837L246.191 17.5817L246.164 17.5797L246.137 17.5772L246.11 17.5747L246.083 17.5717L246.056 17.5687L246.03 17.5657L246.003 17.5622L245.976 17.5587L245.949 17.5552L245.922 17.5512L245.895 17.5472L245.869 17.5432L245.842 17.5387L245.815 17.5337L245.788 17.5292L245.761 17.5242L245.734 17.5192L245.708 17.5142L245.681 17.5092L245.654 17.5032L245.627 17.4977L245.6 17.4917L245.574 17.4857L245.547 17.4792L245.52 17.4732L245.493 17.4667L245.466 17.4597L245.439 17.4527L245.413 17.4457L245.386 17.4387L245.359 17.4312L245.332 17.4237L245.306 17.4162L245.278 17.4082L245.252 17.4002L245.225 17.3922L245.198 17.3837L245.171 17.3752L245.145 17.3667L245.117 17.3582L245.091 17.3492L245.064 17.3402L245.037 17.3307L245.01 17.3217L244.984 17.3117L244.956 17.3022L244.93 17.2922L244.903 17.2822L244.876 17.2722L244.849 17.2622L244.823 17.2522L244.796 17.2412L244.769 17.2307L244.742 17.2197L244.715 17.2087L244.688 17.1977L244.662 17.1867L244.635 17.1752L244.608 17.1637L244.581 17.1522L244.554 17.1402L244.527 17.1282L244.501 17.1162L244.474 17.1042L244.447 17.0917L244.42 17.0792L244.393 17.0667L244.367 17.0537L244.34 17.0412L244.313 17.0282L244.286 17.0152L244.259 17.0017L244.232 16.9882L244.206 16.9747L244.179 16.9612L244.152 16.9477L244.094 16.9177Z" fill="#006CB9"></path><path fill-rule="evenodd" clip-rule="evenodd" d="M251.854 13.3642C251.834 13.3813 251.815 13.3986 251.797 13.4162V9.46623C251.797 9.01529 251.89 8.57008 252.068 8.16323C252.13 8.02342 252.202 7.88903 252.283 7.76123L252.31 7.71923L252.337 7.67923C252.346 7.66632 252.355 7.65349 252.364 7.64073L252.39 7.60273L252.418 7.56673C252.435 7.5431 252.453 7.51976 252.471 7.49673L252.498 7.46373L252.525 7.43123C252.559 7.39014 252.595 7.35013 252.632 7.31123L252.659 7.28273L252.686 7.25573L252.712 7.22873L252.739 7.20273L252.766 7.17773L252.793 7.15273C252.845 7.10574 252.899 7.06055 252.954 7.01723C252.981 6.99646 253.007 6.97612 253.034 6.95623L253.061 6.93723L253.088 6.91823L253.115 6.90023L253.142 6.88223L253.168 6.86523L253.195 6.84773L253.222 6.83173L253.249 6.81523L253.276 6.80023L253.303 6.78473L253.329 6.76973L253.356 6.75523L253.383 6.74123L253.41 6.72773L253.437 6.71423L253.464 6.70123L253.49 6.68873L253.517 6.67673L253.544 6.66473L253.571 6.65323L253.598 6.64223L253.625 6.63123L253.651 6.62123L253.678 6.61073L253.705 6.60073L253.732 6.59123L253.759 6.58223L253.786 6.57373L253.812 6.56473L253.839 6.55673L253.866 6.54873L253.893 6.54123L253.92 6.53423L253.946 6.52723L253.973 6.52073L254 6.51423L254.027 6.50823L254.054 6.50273L254.081 6.49723L254.107 6.49223L254.134 6.48723L254.161 6.48223L254.188 6.47823L254.215 6.47423L254.242 6.47073L254.268 6.46723L254.295 6.46423L254.322 6.46123L254.349 6.45873L254.376 6.45673L254.403 6.45473L254.429 6.45273L254.456 6.45173L254.483 6.45023L254.51 6.44923H254.536L254.564 6.44873H258.664V21.5347C258.664 21.8753 258.61 22.2133 258.507 22.5347C258.443 22.7284 258.363 22.9147 258.265 23.0907C258.248 23.1218 258.23 23.1524 258.212 23.1827C258.203 23.1977 258.194 23.2127 258.185 23.2267C258.142 23.2941 258.098 23.3596 258.051 23.4232L258.024 23.4592L257.997 23.4937L257.97 23.5267L257.943 23.5597L257.916 23.5912L257.89 23.6222L257.863 23.6522C257.837 23.6812 257.81 23.7095 257.783 23.7372L257.755 23.7642L257.729 23.7902L257.702 23.8157L257.675 23.8407L257.648 23.8647L257.622 23.8882L257.594 23.9117L257.568 23.9337L257.541 23.9557L257.514 23.9772L257.487 23.9982L257.461 24.0182L257.433 24.0382L257.407 24.0577L257.38 24.0767L257.353 24.0947L257.326 24.1132L257.3 24.1302L257.273 24.1477C257.264 24.1533 257.255 24.1588 257.246 24.1642L257.219 24.1802L257.192 24.1962L257.165 24.2112L257.139 24.2262L257.112 24.2412L257.085 24.2552C257.076 24.2602 257.067 24.2642 257.058 24.2687L257.031 24.2822C257.022 24.2872 257.013 24.2912 257.004 24.2952L256.978 24.3082L256.951 24.3202L256.924 24.3322L256.897 24.3442L256.87 24.3552L256.844 24.3662L256.817 24.3762L256.79 24.3867L256.763 24.3967L256.736 24.4067C256.727 24.4092 256.718 24.4127 256.709 24.4157L256.683 24.4242L256.656 24.4332L256.629 24.4412L256.602 24.4492L256.575 24.4572L256.548 24.4642L256.522 24.4712L256.495 24.4782L256.468 24.4842L256.441 24.4907L256.414 24.4962L256.387 24.5017L256.361 24.5067L256.334 24.5117L256.307 24.5167L256.28 24.5207L256.254 24.5247L256.226 24.5287L256.2 24.5322L256.173 24.5352L256.146 24.5382L256.119 24.5407L256.093 24.5432L256.065 24.5452L256.039 24.5472L256.012 24.5487L255.985 24.5497L255.958 24.5507L255.932 24.5512L255.904 24.5517H251.797V17.5862C251.833 17.6198 251.87 17.6524 251.908 17.6837L251.935 17.7057L251.961 17.7272C251.979 17.7413 251.997 17.7551 252.015 17.7687L252.042 17.7887L252.068 17.8077L252.096 17.8267L252.122 17.8452L252.149 17.8632L252.176 17.8812L252.203 17.8982L252.229 17.9152L252.257 17.9317L252.283 17.9477L252.31 17.9637L252.337 17.9787L252.364 17.9937L252.39 18.0087L252.418 18.0232L252.444 18.0372L252.471 18.0512L252.498 18.0647L252.525 18.0777L252.551 18.0907L252.578 18.1032L252.605 18.1157L252.632 18.1277L252.659 18.1397L252.686 18.1512L252.712 18.1627L252.739 18.1742L252.766 18.1852L252.793 18.1952L252.82 18.2062L252.847 18.2162L252.873 18.2262L252.9 18.2362L252.927 18.2462L252.954 18.2552L252.981 18.2647L253.007 18.2737L253.034 18.2822L253.061 18.2907L253.088 18.2992L253.115 18.3077L253.142 18.3157L253.168 18.3237L253.195 18.3317L253.222 18.3392L253.249 18.3467L253.276 18.3537L253.303 18.3607L253.329 18.3677L253.356 18.3747L253.383 18.3812L253.41 18.3877L253.437 18.3942L253.464 18.4002L253.49 18.4062L253.517 18.4122L253.544 18.4182L253.571 18.4237L253.598 18.4292L253.625 18.4342L253.651 18.4397L253.678 18.4447L253.705 18.4497L253.732 18.4547L253.759 18.4597L253.786 18.4642L253.812 18.4687L253.839 18.4732L253.866 18.4772L253.893 18.4812L253.92 18.4857L253.946 18.4892L253.973 18.4932L254 18.4967L254.027 18.5007L254.054 18.5042L254.081 18.5072L254.107 18.5107L254.134 18.5137L254.161 18.5167L254.188 18.5197L254.215 18.5227L254.242 18.5257L254.268 18.5282L254.295 18.5307L254.322 18.5332L254.349 18.5357L254.376 18.5382L254.403 18.5402L254.429 18.5422L254.456 18.5442L254.483 18.5462L254.51 18.5482L254.536 18.5497L254.564 18.5517L254.59 18.5532L254.617 18.5547L254.644 18.5562L254.671 18.5577L254.697 18.5587L254.725 18.5602L254.751 18.5612L254.778 18.5622L254.805 18.5632L254.832 18.5642L254.858 18.5647L254.886 18.5652L254.912 18.5662L254.939 18.5667H254.966L254.993 18.5677H255.019L255.046 18.5682H255.127L255.154 18.5687H255.234L255.261 18.5682L255.288 18.5677H255.315L255.341 18.5667H255.368L255.395 18.5657L255.422 18.5652L255.449 18.5642L255.475 18.5637L255.502 18.5627L255.529 18.5617L255.556 18.5607L255.583 18.5597L255.61 18.5587L255.636 18.5577L255.663 18.5562L255.69 18.5552L255.703 18.5547L255.717 18.5537L255.744 18.5527L255.771 18.5512L255.797 18.5492L255.824 18.5477L255.851 18.5457L255.878 18.5437L255.904 18.5417L255.932 18.5397L255.958 18.5377L255.985 18.5352L256.012 18.5327L256.039 18.5302L256.065 18.5277L256.093 18.5252L256.119 18.5227L256.146 18.5197L256.173 18.5167L256.2 18.5137L256.226 18.5107L256.254 18.5077L256.28 18.5042L256.307 18.5012L256.334 18.4977L256.361 18.4942L256.387 18.4907L256.414 18.4872L256.441 18.4837L256.468 18.4797L256.495 18.4762L256.522 18.4722L256.548 18.4682L256.575 18.4642L256.602 18.4602L256.629 18.4562L256.656 18.4522L256.683 18.4477L256.709 18.4437L256.736 18.4387L256.763 18.4347L256.79 18.4302L256.817 18.4252L256.844 18.4212L256.87 18.4162L256.897 18.4112L256.924 18.4067L256.951 18.4017L256.978 18.3967L257.004 18.3917L257.031 18.3867L257.058 18.3817L257.085 18.3767L257.112 18.3717L257.139 18.3667L257.165 18.3607L257.192 18.3557L257.219 18.3502L257.246 18.3447L257.273 18.3392L257.3 18.3332L257.326 18.3282L257.353 18.3222L257.38 18.3162L257.407 18.3102L257.433 18.3047L257.461 18.2987L257.487 18.2927L257.514 18.2867L257.541 18.2802L257.568 18.2742L257.594 18.2677L257.622 18.2617L257.648 18.2552L257.675 18.2487L257.702 18.2422L257.729 18.2357L257.755 18.2292L257.783 18.2222L257.809 18.2157L257.836 18.2087L257.863 18.2017L257.89 18.1942V16.9182L257.863 16.9327L257.836 16.9467L257.809 16.9612L257.783 16.9752L257.755 16.9892L257.729 17.0032L257.702 17.0167L257.675 17.0302L257.648 17.0437L257.622 17.0567L257.594 17.0702L257.568 17.0832L257.541 17.0957L257.514 17.1082L257.487 17.1207L257.461 17.1332L257.433 17.1457L257.407 17.1577L257.38 17.1697L257.353 17.1812L257.326 17.1927L257.3 17.2042L257.273 17.2152L257.246 17.2267L257.219 17.2377L257.192 17.2482L257.165 17.2587L257.139 17.2692L257.112 17.2792L257.085 17.2892L257.058 17.2992L257.031 17.3092L257.004 17.3192L256.978 17.3282L256.951 17.3377L256.924 17.3467L256.897 17.3557L256.87 17.3647L256.844 17.3732L256.817 17.3817L256.79 17.3902L256.763 17.3982L256.736 17.4062L256.709 17.4137L256.683 17.4212L256.656 17.4287L256.629 17.4362L256.602 17.4432L256.575 17.4502L256.548 17.4572L256.522 17.4637L256.495 17.4702L256.468 17.4767L256.441 17.4827L256.414 17.4887L256.387 17.4947L256.361 17.5002L256.334 17.5052L256.307 17.5112L256.28 17.5162L256.254 17.5212L256.226 17.5262L256.2 17.5312L256.173 17.5352L256.146 17.5402L256.119 17.5437L256.093 17.5482L256.065 17.5522L256.039 17.5557L256.012 17.5592L255.985 17.5627L255.958 17.5662L255.932 17.5692L255.904 17.5722L255.878 17.5752L255.851 17.5777L255.824 17.5802L255.797 17.5827L255.781 17.5842L255.771 17.5847L255.744 17.5867L255.717 17.5887L255.69 17.5902L255.663 17.5917L255.636 17.5932L255.61 17.5942L255.583 17.5952H255.556L255.529 17.5962H255.422L255.395 17.5952L255.368 17.5942L255.341 17.5932L255.315 17.5922L255.288 17.5902L255.261 17.5887L255.234 17.5867L255.207 17.5842L255.18 17.5822L255.154 17.5792L255.127 17.5762L255.1 17.5727L255.073 17.5692L255.046 17.5652L255.019 17.5612L254.993 17.5572L254.966 17.5522L254.939 17.5472L254.912 17.5422L254.886 17.5367L254.858 17.5302L254.832 17.5242L254.805 17.5177L254.778 17.5107L254.751 17.5032L254.725 17.4957L254.697 17.4877C254.688 17.4851 254.68 17.4825 254.671 17.4797L254.644 17.4707C254.626 17.4648 254.608 17.4586 254.59 17.4522L254.564 17.4422L254.536 17.4317L254.51 17.4212L254.483 17.4097L254.456 17.3982L254.429 17.3857L254.403 17.3732L254.376 17.3597L254.349 17.3457C254.331 17.3364 254.313 17.3267 254.295 17.3167L254.268 17.3012C254.259 17.2962 254.25 17.2902 254.242 17.2847C254.214 17.2679 254.187 17.2504 254.161 17.2322C254.152 17.2265 254.143 17.2203 254.134 17.2137L254.107 17.1937C254.089 17.1801 254.071 17.1661 254.054 17.1517L254.027 17.1292C254.018 17.1217 254.009 17.114 254 17.1062L253.973 17.0822C253.946 17.0566 253.919 17.0299 253.893 17.0022C253.884 16.9922 253.874 16.9832 253.866 16.9732C253.818 16.9199 253.773 16.8631 253.732 16.8032C253.67 16.7141 253.616 16.6184 253.571 16.5177C253.527 16.4219 253.492 16.3222 253.464 16.2197C253.441 16.1396 253.423 16.0581 253.41 15.9757C253.361 15.6615 253.361 15.3405 253.41 15.0262C253.429 14.9132 253.456 14.8019 253.49 14.6932C253.52 14.6019 253.556 14.513 253.598 14.4272C253.651 14.3199 253.714 14.2187 253.786 14.1252C253.835 14.0608 253.889 14.0006 253.947 13.9452C253.955 13.9367 253.964 13.9277 253.973 13.9197L254 13.8952C254.035 13.8646 254.07 13.8354 254.107 13.8077L254.134 13.7877L254.161 13.7692C254.179 13.7569 254.197 13.7449 254.215 13.7332L254.242 13.7167L254.268 13.7002L254.295 13.6852C254.313 13.6749 254.331 13.6649 254.349 13.6552L254.376 13.6417L254.403 13.6282L254.429 13.6157L254.456 13.6032L254.483 13.5917L254.51 13.5802L254.536 13.5697L254.564 13.5592L254.59 13.5492C254.617 13.5395 254.644 13.5304 254.671 13.5217L254.697 13.5137L254.725 13.5057C254.733 13.5027 254.742 13.5007 254.751 13.4982L254.778 13.4907L254.805 13.4837L254.832 13.4772L254.858 13.4712L254.886 13.4647L254.912 13.4597L254.939 13.4542L254.966 13.4492L254.993 13.4442L255.019 13.4402L255.046 13.4357L255.073 13.4322L255.1 13.4287L255.127 13.4252L255.154 13.4222L255.18 13.4192L255.207 13.4172L255.234 13.4147L255.261 13.4127L255.288 13.4107L255.315 13.4092L255.341 13.4082C255.351 13.4082 255.359 13.4072 255.368 13.4067L255.395 13.4062L255.422 13.4057L255.449 13.4052H255.529L255.556 13.4057L255.583 13.4062L255.61 13.4072L255.636 13.4082L255.663 13.4097L255.69 13.4112L255.717 13.4127L255.744 13.4147L255.771 13.4167L255.781 13.4172L255.797 13.4187L255.824 13.4212L255.851 13.4237L255.878 13.4262L255.904 13.4287L255.932 13.4317L255.958 13.4352L255.985 13.4382L256.012 13.4417L256.039 13.4452L256.065 13.4487L256.093 13.4527L256.119 13.4567L256.146 13.4612L256.173 13.4652L256.2 13.4702L256.226 13.4747L256.254 13.4797L256.28 13.4847L256.307 13.4897L256.334 13.4947L256.361 13.4997L256.387 13.5057L256.414 13.5117L256.441 13.5177L256.468 13.5237L256.495 13.5297L256.522 13.5362L256.548 13.5427L256.575 13.5497L256.602 13.5567L256.629 13.5637L256.656 13.5707L256.683 13.5782L256.709 13.5857L256.736 13.5937L256.763 13.6017L256.79 13.6097L256.817 13.6182L256.844 13.6262L256.87 13.6352L256.897 13.6437L256.924 13.6527L256.951 13.6617L256.978 13.6712L257.004 13.6807L257.031 13.6907L257.058 13.7002L257.085 13.7102L257.112 13.7202L257.139 13.7302L257.165 13.7407L257.192 13.7517L257.219 13.7622L257.246 13.7732L257.273 13.7847L257.3 13.7957L257.326 13.8072L257.353 13.8187L257.38 13.8307L257.407 13.8427L257.433 13.8547L257.461 13.8672L257.487 13.8797L257.514 13.8922L257.541 13.9047L257.568 13.9177L257.594 13.9307L257.622 13.9442L257.648 13.9577L257.675 13.9712L257.702 13.9847L257.729 13.9987L257.755 14.0122L257.783 14.0267L257.809 14.0407L257.836 14.0552L257.863 14.0697L257.89 14.0842V12.8067L257.863 12.7997L257.836 12.7927L257.809 12.7857L257.783 12.7792L257.755 12.7722L257.729 12.7657L257.702 12.7592L257.675 12.7527L257.648 12.7462L257.622 12.7397L257.594 12.7332L257.568 12.7272L257.541 12.7212L257.514 12.7147L257.487 12.7087L257.461 12.7027L257.433 12.6967L257.407 12.6912L257.38 12.6852L257.353 12.6792L257.326 12.6737L257.3 12.6682L257.273 12.6622L257.246 12.6572L257.219 12.6512L257.192 12.6462L257.165 12.6407L257.139 12.6352L257.112 12.6302L257.085 12.6252L257.058 12.6197L257.031 12.6147L257.004 12.6097L256.978 12.6047L256.951 12.5997L256.924 12.5947L256.897 12.5897L256.87 12.5852L256.844 12.5802L256.817 12.5757L256.79 12.5712L256.763 12.5667L256.736 12.5622L256.709 12.5582L256.683 12.5537L256.656 12.5497L256.629 12.5452L256.602 12.5412L256.575 12.5372L256.548 12.5332L256.522 12.5292L256.495 12.5257L256.468 12.5217L256.441 12.5182L256.414 12.5142L256.387 12.5107L256.361 12.5072L256.334 12.5037L256.306 12.5002L256.28 12.4967L256.253 12.4937L256.226 12.4907L256.199 12.4872L256.173 12.4847L256.145 12.4817L256.119 12.4787L256.092 12.4762L256.065 12.4737L256.038 12.4707L256.012 12.4682L255.984 12.4662L255.958 12.4637L255.931 12.4617L255.904 12.4597L255.877 12.4577L255.851 12.4557L255.824 12.4537L255.797 12.4522L255.77 12.4507L255.743 12.4492L255.716 12.4477L255.702 12.4467H255.69L255.663 12.4452L255.636 12.4437L255.61 12.4427L255.583 12.4417L255.556 12.4407L255.529 12.4397L255.502 12.4387L255.475 12.4377L255.449 12.4372L255.422 12.4362H255.395L255.368 12.4352L255.341 12.4347L255.315 12.4342H255.288L255.261 12.4332H255.019L254.993 12.4337L254.966 12.4342L254.939 12.4347L254.912 12.4352L254.886 12.4362L254.858 12.4367L254.832 12.4377L254.805 12.4387L254.778 12.4392L254.751 12.4402L254.725 12.4417L254.697 12.4427L254.671 12.4442L254.644 12.4452L254.617 12.4467L254.59 12.4482L254.564 12.4497L254.536 12.4517L254.51 12.4532L254.483 12.4552L254.456 12.4572L254.429 12.4592L254.403 12.4612L254.376 12.4637L254.349 12.4657L254.322 12.4682L254.295 12.4707L254.268 12.4732L254.242 12.4762L254.215 12.4787L254.188 12.4817L254.161 12.4847L254.134 12.4877L254.107 12.4907L254.081 12.4942L254.054 12.4977L254.027 12.5012L254 12.5047L253.973 12.5082L253.946 12.5122L253.92 12.5162L253.893 12.5202L253.866 12.5242L253.839 12.5287L253.812 12.5332L253.786 12.5372L253.759 12.5422L253.732 12.5472L253.705 12.5517L253.678 12.5567L253.651 12.5617L253.625 12.5667L253.598 12.5727L253.571 12.5777L253.544 12.5837L253.517 12.5892L253.49 12.5952L253.464 12.6012L253.437 12.6077L253.41 12.6137L253.383 12.6202L253.356 12.6272L253.329 12.6337L253.303 12.6407L253.276 12.6477L253.249 12.6552L253.222 12.6627L253.195 12.6702L253.168 12.6782L253.142 12.6857L253.115 12.6942L253.088 12.7022L253.061 12.7107L253.034 12.7192L253.007 12.7282L252.981 12.7372L252.954 12.7467L252.927 12.7557L252.9 12.7657L252.873 12.7757L252.847 12.7857L252.82 12.7957L252.793 12.8062L252.766 12.8167L252.739 12.8277L252.712 12.8387L252.686 12.8502L252.659 12.8622L252.632 12.8737L252.605 12.8862L252.578 12.8987L252.551 12.9112L252.525 12.9242L252.498 12.9372L252.471 12.9507L252.444 12.9647L252.418 12.9787L252.39 12.9932L252.364 13.0082L252.337 13.0232L252.31 13.0382L252.283 13.0542L252.257 13.0702L252.229 13.0867L252.203 13.1037L252.176 13.1212L252.149 13.1387L252.122 13.1567L252.096 13.1752L252.068 13.1942L252.042 13.2137L252.015 13.2337C251.997 13.2472 251.979 13.2609 251.961 13.2747L251.935 13.2962C251.907 13.3184 251.881 13.341 251.854 13.3642Z" fill="#E10238"></path></g><defs><linearGradient id="paint0_linear_7385_919" x1="142.219" y1="15.3438" x2="139.655" y2="11.4547" gradientUnits="userSpaceOnUse"><stop stop-color="#F89F20"></stop><stop offset="0.25" stop-color="#F79A20"></stop><stop offset="0.533" stop-color="#F68D20"></stop><stop offset="0.62" stop-color="#F58720"></stop><stop offset="0.723" stop-color="#F48120"></stop><stop offset="1" stop-color="#F37521"></stop></linearGradient><linearGradient id="paint1_linear_7385_919" x1="141.833" y1="15.2901" x2="138.064" y2="8.15565" gradientUnits="userSpaceOnUse"><stop stop-color="#F58720"></stop><stop offset="0.359" stop-color="#E16F27"></stop><stop offset="0.703" stop-color="#D4602C"></stop><stop offset="0.982" stop-color="#D05B2E"></stop></linearGradient><clipPath id="clip0_7385_919"><rect width="278" height="30" fill="white"></rect></clipPath></defs></svg>